<?xml version="1.0" encoding="UTF-8"?>
<svg id="Ebene_2" data-name="Ebene 2" xmlns="http://www.w3.org/2000/svg" viewBox="0 0 170.08 170.08">
  <defs>
    <style>
      .cls-1 {
        fill: none;
        stroke: #010101;
        stroke-linecap: round;
        stroke-linejoin: round;
        stroke-width: .6px;
      }

      .cls-2 {
        fill: #e58c34;
        stroke-width: 0px;
      }
    </style>
  </defs>
  <circle class="cls-2" cx="87.8" cy="90.08" r="6.27"/>
  <path class="cls-1" d="m115.12,54.76c-9.01-5.47-20.04-7.52-30.41-5.65-8.6,1.55-16.8,5.85-22.42,12.53-4.23,5.02-6.9,11.19-8.67,17.5-1.95,6.93-2.88,14.24-1.86,21.37,1.02,7.13,4.09,14.08,9.28,19.07,6.46,6.19,15.88,8.89,24.76,7.85,8.88-1.05,17.16-5.64,23.38-12.07,6.21-6.43,10.44-14.63,12.9-23.22,2.69-9.37,3.22-19.9-1.42-28.47-3.46-6.37-9.56-11.1-16.37-13.57s-14.29-2.8-21.45-1.69c-8.8,1.36-17.49,5.03-23.52,11.58-3.76,4.08-6.35,9.12-8.3,14.32-1.28,3.43-2.31,7.01-2.4,10.67-.09,4,.95,7.96,2.44,11.67,5.19,12.89,16.52,23.44,30.07,26.52s28.91-1.96,37.09-13.2c3.14-4.31,5.18-9.33,6.75-14.42,3.06-9.92,4.32-21.05-.19-30.4-4.05-8.41-12.26-14.19-21-17.49-6.02-2.27-12.64-3.53-18.9-2.02-5.49,1.33-10.29,4.7-14.36,8.63-6.84,6.59-12.09,15.25-12.94,24.71-.44,4.91.3,9.86,1.48,14.64,1.59,6.43,4.03,12.72,7.89,18.1s9.23,9.81,15.53,11.84c4.17,1.34,8.65,1.6,12.98.96,8.97-1.31,17.35-6.67,21.94-14.49,4.3-7.34,5.13-16.3,4.02-24.74-.98-7.52-3.56-15.1-8.85-20.54-4.87-5.01-11.68-7.8-18.58-8.88-8.28-1.29-16.91-.25-24.64,2.98-4.17,1.74-8.12,4.14-11.2,7.44-2.96,3.17-5.04,7.09-6.52,11.18-2.4,6.65-3.27,13.81-2.89,20.87.24,4.37.95,8.75,2.5,12.85,3.6,9.51,11.87,17.12,21.64,19.92s20.82.72,28.9-5.44c8.09-6.16,13.03-16.25,12.93-26.42-.05-5.2-1.35-10.34-3.44-15.1-2.54-5.75-6.3-11.03-11.27-14.88-4.97-3.85-11.18-6.22-17.46-6.12-3.74.06-7.52,1.01-10.65,3.06-2.84,1.86-5.06,4.58-6.6,7.61-3.15,6.19-3.47,13.45-2.68,20.35.92,8.02,3.32,15.98,7.75,22.73s11.02,12.23,18.75,14.56c4.16,1.25,8.79,1.55,12.74-.26,3.04-1.39,5.42-3.89,7.57-6.45,6.17-7.36,11.11-15.74,14.57-24.7,2.07-5.37,3.62-11,3.91-16.75.75-14.7-7.49-29.49-20.37-36.6s-29.79-6.19-41.83,2.28c-7.24,5.09-12.63,12.59-15.84,20.84-4.24,10.91-4.69,23.38-.57,34.34,6,15.94,21.97,27.62,38.98,28.5,12.93.67,26.38-4.98,33.76-15.62,4.67-6.72,6.77-15.05,6.55-23.23-.22-8.18-2.67-16.21-6.41-23.48-2.29-4.45-5.11-8.69-8.84-12.03s-8.42-5.75-13.41-6.13c-7.59-.59-14.91,3.52-20.2,9-7.48,7.75-11.07,13.43-11.03,24.19"/>
</svg>