<?xml version="1.0" encoding="UTF-8"?>
<svg id="Ebene_2" data-name="Ebene 2" xmlns="http://www.w3.org/2000/svg" viewBox="0 0 170.08 170.08">
  <defs>
    <style>
      .cls-1 {
        fill: none;
        stroke: #010101;
        stroke-linecap: round;
        stroke-linejoin: round;
        stroke-width: .6px;
      }

      .cls-2 {
        fill: #e58c34;
        stroke-width: 0px;
      }
    </style>
  </defs>
  <circle class="cls-2" cx="87.8" cy="90.08" r="6.27"/>
  <path class="cls-1" d="m102.96,73.79c-3.34-3.28-7.61-4.69-12.29-4.69-18.15,0-42.46,21.24-42.46,36.99,0,7.6,6.87,16.09,19.42,16.09,14.57,0,33.7-11.28,33.7-26.08,0-6.68-5.4-10.2-11.18-10.2-4.09,0-11.1,1.86-11.1,7.43,0,7.35,10.45,18.35,10.45,27.06,0,5.46-7.57,19.17-14.51,19.17-3.13,0-8.8-3.81-8.8-8.93,0-15.91,46.1-33.55,46.1-60.16,0-10.55-10.73-21.56-24.46-21.56-18.4,0-37.76,18.48-37.76,36.74,0,20.2,23.67,31.03,41.76,31.03,12.65,0,23.49-5.64,23.49-20.47,0-11.92-11.79-27.65-28.37-27.65-11.54,0-21.9,7.81-21.9,20.9,0,15.12,15.23,26.75,30.04,26.75s24.46-11.11,24.46-23.28c0-13.14-12.27-24.49-23.06-24.49-5.5,0-9.97,2.73-9.97,8.85,0,9.34,6.53,15.29,6.53,26.99,0,5.08-.55,11.43-.55,17.38,0,9.94,1.53,18.78,9.72,18.78,12.93,0,28.92-16.11,28.92-39.63,0-18.96-11.45-29.32-24.51-29.32-17.33,0-30.39,20.88-30.39,38.43,0,11.28,5.97,21.71,16.81,21.71,10.1,0,20.56-9.18,20.56-16.87,0-4.4-3.67-8.09-8.91-8.09-8.42,0-17.02,6.72-17.02,15.37,0,5.32,3.54,9.96,10.7,9.96,10.32,0,17.1-5.4,17.1-16.25,0-15.81-18.11-33.12-37.54-33.12-13.69,0-29.33,8.46-29.33,22.26,0,8.7,8.16,18.9,19.38,18.9,16.71,0,35.55-20.79,35.55-38.59s-20.09-24.92-34.93-24.92c-22.17,0-36.13,20.8-36.13,34.04s15.42,24.77,25.31,24.77c22.01,0,36.87-15.4,36.87-36.22s-15.08-40.09-28.66-40.09c-8.23,0-18.66,7.55-18.66,18.92,0,12.07,11.06,26.31,25.01,26.31,19.16,0,38.01-25.36,38.01-40.82,0-8.3-5.5-12.22-12.51-12.22-11.67,0-19.55,14.52-19.55,25.29,0,19.93,17.06,36.82,31.52,36.82,12.75,0,27.51-11.03,27.51-23.86,0-11.23-8.57-19.8-23.19-19.8-19.34,0-35.07,14.8-35.07,36.42,0,15.87,8.96,30.82,23.26,30.82,11.17,0,17.46-8.46,17.46-18.52,0-15.18-14.35-22.26-29.66-22.26-20.2,0-43.68,12.51-43.68,30.29,0,7.41,12.48,20.25,21.95,20.25,14.16,0,26.94-24.04,40.24-24.04,7.75,0,5.46,14.17,11.29,14.17,2.34,0,10.72-4.99,10.88-13.53"/>
</svg>