<?xml version="1.0" encoding="UTF-8"?>
<svg id="Ebene_2" data-name="Ebene 2" xmlns="http://www.w3.org/2000/svg" viewBox="0 0 198.43 170.08">
  <defs>
    <style>
      .cls-1 {
        fill: none;
        stroke: #010101;
        stroke-linecap: round;
        stroke-linejoin: round;
        stroke-width: .6px;
      }

      .cls-2 {
        fill: #e58c34;
        stroke-width: 0px;
      }
    </style>
  </defs>
  <path class="cls-1" d="m9.85,107.13c.08,0,.85,0,.93,0,3.64,0,7.34-.3,11.02-.3,4.01,0,9.82.37,17.39.37,6.4,0,14.21.14,14.21-5.23,0-2.26-2.2-4.47-5.37-4.47-.97,0-2.02.21-3.13.68.4-.82.59-1.64.59-2.38,0-1.68-.97-2.95-2.66-2.95-.61,0-1.33.17-2.12.55,2.32-2.06,3.25-4.16,3.25-5.99,0-3.02-2.53-5.28-5.46-5.28-1.98,0-4.14,1.03-5.83,3.56.1-.5.14-1,.14-1.48,0-3.87-2.95-6.91-6.53-6.91-3.79,0-7.72,2.98-7.98,10.51-1.47-1.05-3.04-1.89-4.71-1.89-2.6,0-5.91,2.2-5.91,6.88,0,2.62.95,5.45,1.92,7.61-.78-.09-1.52-.26-2.27-.26-2.09,0-3.25,1.46-3.25,3.38,0,1.26.56,2.52,1.68,3.06,1.41.69,2.4.55,4.11.55Z"/>
  <path class="cls-1" d="m147.75,116.83c.28,0,.56,0,.82,0,6.34.04,12.68.21,19.01.54,6.11.31,12.17.88,18.27.11,3.36-.42,8.85-1.85,8.85-6.16,0-2.86-3.62-5.46-8.1-5.46-1.41,0-2.91.26-4.4.85,2.3-2.81,3.22-5.13,3.22-6.94,0-2.92-2.42-4.47-5.32-4.47-2.34,0-4.99,1-6.96,3.11.61-1.6,1.43-3.11,1.43-4.83,0-3.44-3.22-5.63-6.7-5.63s-7.18,2.17-8.09,7.37c-.81-3.4-2.81-4.9-4.97-4.9-3.49,0-7.39,3.9-7.39,10.06,0,1.38.19,2.86.63,4.44-.51-.04-1.01-.05-1.49-.05-6.41,0-9.76,3.06-9.76,6.07,0,5.64,6.69,5.85,10.95,5.88Z"/>
  <circle class="cls-2" cx="141.61" cy="39.43" r="15.16"/>
  <path class="cls-1" d="m75.15,134.43c1.16-.01,2.33-.02,3.49,0,7.79.04,15.58.08,23.37.12,7.66.04,24.09.88,24.33-10.48.07-3.18-2.04-6.26-6.87-7.6,1.22-2.16,2.56-4.99,2.61-7.68.14-6.63-5.7-5.49-6.05-7.2-.4-1.93,1.83-12.91-10.71-13.18-5.88-.12-9.69,4.52-12.44,9.7-2.34-3.04-4.96-4.47-7.43-4.52-3.7-.08-7.04,2.93-8.55,8.24-1.25-1.78-2.81-6.95-9.93-7.1-5.55-.12-7.92,5.39-8.04,10.9-.06,2.78.46,5.57,1.43,7.63-2.04-.09-4.13-.42-6.17-.47-9.35-.2-12.93,10.12-13.02,14.29-.15,6.89,7.58,7.4,14.62,7.55,6.45.14,12.9-.13,19.35-.19Z"/>
</svg>