<?xml version="1.0" encoding="UTF-8"?>
<svg id="Ebene_2" data-name="Ebene 2" xmlns="http://www.w3.org/2000/svg" viewBox="0 0 170.08 170.08">
  <defs>
    <style>
      .cls-1 {
        fill: none;
        stroke: #010101;
        stroke-linecap: round;
        stroke-linejoin: round;
        stroke-width: .6px;
      }
    </style>
  </defs>
  <g>
    <path class="cls-1" d="M111.26,43.84c1.47.02,2.93.15,4.38.39"/>
    <path class="cls-1" d="M115.66,44.26c-.3,7.75-.4,15.51-.28,23.26.01.83.12,1.82.85,2.23.55.3,1.27.12,1.73-.3s.72-1.02.89-1.62c.36-1.24.43-2.54.49-3.82.33-6.72.49-13.46.46-20.19"/>
    <path class="cls-1" d="M119.93,43.49c.83-.09,1.67,0,2.47.25"/>
    <path class="cls-1" d="M123.1,43.81c.05,8.01.26,16.01.62,24.01.03.66.07,1.35.44,1.9s1.18.85,1.71.45c.26-.2.39-.51.5-.82.63-1.79.79-3.7.91-5.6.41-6.6.48-13.22.19-19.83"/>
    <path class="cls-1" d="M127.7,43.83c.98-.07,1.96-.03,2.93.1"/>
    <path class="cls-1" d="M117.12,139.24c-.17-3.13-.21-6.27-.23-9.41-.14-17.92.09-27.29.71-45.21.03-.85.06-1.72-.22-2.53-.73-2.09-3.18-2.98-4.64-4.65-1.83-2.1-1.88-5.17-1.84-7.96.14-8.6.28-17.2.43-25.8"/>
    <path class="cls-1" d="M131.03,44.26c0,8.3.01,16.59.02,24.89,0,2.85-.13,6.03-2.15,8.04-1.27,1.25-3.13,1.87-4.14,3.34-.67.98-.86,2.2-1.02,3.37-2.82,20.95.04,33.71-1.13,54.8"/>
  </g>
  <path class="cls-1" d="M45.11,137.11c-.06-.08-.08-.57-.08-1.28,0-2.13.21-6.22.21-7.09,0-2.76-.29-7.25-.29-11.91,0-33.79,21.48-9.03,21.48-29.23,0-4.01-2.52-4.83-5.81-4.83-2.26,0-4.87.38-7.28.38-3.84,0-7.25-1.24-7.25-5.1,0-4.66,4.61-5.68,8.41-6.2-1.63-2.87-2.7-6-2.7-8.65,0-3.58,1.94-6.27,7.06-6.27.35,0,.71.01,1.09.04-.46-1.91-.69-3.86-.69-5.8,0-9.17,5.69-20.13,15.13-20.13,6.95,0,12.53,5.46,12.53,11.51,0,4.64-3.02,8.89-3.5,13.55,1.67-1.81,2.84-2.65,5.28-2.65,3.37,0,4.54,1.26,4.54,3.08,0,3.55-4.42,9.22-5.53,11.86,1.45-.2,3.4-.41,5.44-.41,5.5,0,10.25,1.44,10.25,6.94,0,6.2-8.06,6.48-14.22,6.48-1.15,0-2.3-.01-3.42-.01-10.6,0-11.45,1.62-11.45,7.25,0,7.61,4.14,8.34,8.37,8.34,1.01,0,2.02-.04,2.99-.04,5.41,0,8.07.03,8.07,27.91,0,5.46-.12,10.59-.12,14.21"/>
  <path class="cls-1" d="M93.58,139.04c2.14,0,10.44-.22,16.46-.22,3.41,0,6.48.3,7.08.42"/>
</svg>