<?xml version="1.0" encoding="UTF-8"?>
<svg id="Ebene_2" data-name="Ebene 2" xmlns="http://www.w3.org/2000/svg" viewBox="0 0 170.08 170.08">
  <defs>
    <style>
      .cls-1 {
        fill: none;
        stroke: #010101;
        stroke-linecap: round;
        stroke-linejoin: round;
        stroke-width: .6px;
      }

      .cls-2 {
        fill: #e58c34;
        stroke-width: 0px;
      }
    </style>
  </defs>
  <circle class="cls-2" cx="85.04" cy="65.78" r="43.29"/>
  <path class="cls-1" d="m18.88,128.81c0-4.28-.83-14.48-.83-20.96,0-31.38,21.89-10.22,21.89-28.2,0-6.57-6.35-11.04-6.35-18.71,0-7.21,5.63-15.6,13.47-15.6s12.22,6.88,12.22,12.81c0,7.4-6.42,13.46-6.42,20.71,0,16.02,20.58-.24,20.58,26.21,0,5.36-.56,11.2-.56,15.86,0,1.36.06,4.69.19,5.81"/>
  <path class="cls-1" d="m94.46,125.65c0-.16,0-.32,0-.49,0-3.98-.54-10.98-.54-17.62,0-31.27,20.8-11.91,20.8-31.66,0-7.34-5.9-14.1-5.9-21.63,0-8.39,7.48-13.26,14.79-13.26,6.47,0,11.07,3.34,11.07,10.59s-4.14,16.74-4.14,22.64c0,14.4,17.17,8.38,17.17,27.01,0,6.23-1.6,12.88-1.6,17.82,0,3.3.47,6.6.56,9.88"/>
</svg>