<?xml version="1.0" encoding="UTF-8"?>
<svg id="Ebene_2" xmlns="http://www.w3.org/2000/svg" version="1.1" viewBox="0 0 170.08 170.08">
  <!-- Generator: Adobe Illustrator 30.1.0, SVG Export Plug-In . SVG Version: 2.1.1 Build 136)  -->
  <defs>
    <style>
      .st0 {
        fill: none;
        stroke: #010101;
        stroke-linecap: round;
        stroke-linejoin: round;
        stroke-width: .6px;
      }
    </style>
  </defs>
  <path class="st0" d="M109.78,125.68c-1.05-.03-4.33-.17-8.18-.17-7.31,0-16.68.5-16.68,3.2,0,2.84,5.01,3.2,7.82,3.27"/>
  <path class="st0" d="M91.06,131.9c-3.61.16-6.76,1.04-6.79,2.16-.04,2.13,6.25,2.63,9.33,2.78"/>
  <path class="st0" d="M93.6,136.85c-1.63.05-9.29,0-9.29,2.37,0,2.96,6.32,3.49,9.65,3.55,3.91.06,6.15.13,9.22.13,3.93,0,7.49.35,13.09.35,11.12,0,24.66-1.39,24.66-12.49,0-18.43-44.23-22.71-44.23-46.05,0-5.26,1.15-10.91,1.15-15.87,0-9.32-5.54-13.69-13.02-13.69-5.35,0-14.84,3.91-14.84,16.08,0,5.77,1.62,12.13,1.62,17.91,0,25-42.29,13.52-41.8,41.65.08,4.37,2.66,10.91,14.19,11.08s29.09.52,32.36.52c5.08,0,7.76-1.44,7.93-3.16s-9.48-2.35-9.48-2.35c0,0,8.85-.47,9.44-2.8s-9.11-2.28-9.11-2.28"/>
  <path class="st0" d="M76.33,131.73s8.3-1.08,8.59-3.02-14.96-3.44-18.22-3.58c-3.26-.14-19.5-.82-19.5-.82"/>
</svg>