<?xml version="1.0" encoding="UTF-8"?>
<svg id="Ebene_2" data-name="Ebene 2" xmlns="http://www.w3.org/2000/svg" viewBox="0 0 170.08 170.08">
  <defs>
    <style>
      .cls-1 {
        fill: none;
        stroke: #010101;
        stroke-linecap: round;
        stroke-linejoin: round;
        stroke-width: .6px;
      }

      .cls-2 {
        fill: #e58c34;
        stroke-width: 0px;
      }
    </style>
  </defs>
  <circle class="cls-2" cx="86.72" cy="59.29" r="36.73"/>
  <g>
    <path class="cls-1" d="m87.3,83.19c.97,1.82,1.76,4.28,2.58,6.17,1.06,2.44,15.14,39.24,19.79,50.94"/>
    <path class="cls-1" d="m109.67,140.3c.65-.35,4.45-1.87,5.13-2.16.13-.05.25-.11.38-.16"/>
    <path class="cls-1" d="m115.1,137.79c-1.06-2.45-2.09-4.91-2.94-7.45"/>
    <path class="cls-1" d="m112.29,130.3c6.13,4.85,8.33,5.4,15.91,2.58"/>
    <path class="cls-1" d="m128.2,132.88c-10.27-3.26-14.47-8.29-18.76-18.19-.52-1.2,2.33,6.07-13.79-35.13"/>
  </g>
  <g>
    <path class="cls-1" d="m76.29,77.46c-1.81,3.46-2.27,4.08-3.18,5.93-1.17,2.38-19.95,36.98-25.86,48.09"/>
    <path class="cls-1" d="m47.26,131.48c.68.3,3.49,2.08,4.14,2.43.12.07.24.13.36.2"/>
    <path class="cls-1" d="m51.85,133.94c1.28-2.34,1.68-3.57,3.16-5.79"/>
    <path class="cls-1" d="m55.13,128.22c-.07,7.81,3.35,10.2,8.63,13.06"/>
    <path class="cls-1" d="m63.76,141.28c-5.98-15.18-1.51-21.08,21.16-59.07"/>
  </g>
</svg>