<?xml version="1.0" encoding="UTF-8"?>
<svg id="Ebene_2" data-name="Ebene 2" xmlns="http://www.w3.org/2000/svg" viewBox="0 0 170.08 170.08">
  <defs>
    <style>
      .cls-1 {
        fill: none;
        stroke: #010101;
        stroke-linecap: round;
        stroke-linejoin: round;
        stroke-width: .6px;
      }

      .cls-2 {
        fill: #e58c34;
        stroke-width: 0px;
      }
    </style>
  </defs>
  <circle class="cls-2" cx="86.72" cy="59.29" r="36.73"/>
  <path class="cls-1" d="m88.3,78.67c.17,2.08-.24,4.72-.24,6.81,0,2.69-1.58,42.53-1.98,55.28"/>
  <path class="cls-1" d="m86.08,140.77c.75-.06,3.84,0,4.59,0,.14,0,.28,0,.42,0"/>
  <path class="cls-1" d="m91.09,140.56c0-2.7.04-5.41.27-8.11"/>
  <path class="cls-1" d="m91.5,132.47c3.74,6.97,5.57,8.37,13.75,8.81"/>
  <path class="cls-1" d="m105.25,141.28c-8.23-7.16-10.11-13.54-10.11-24.46,0-1.33-.28,6.58,1.33-38.21"/>
  <path class="cls-1" d="m82.21,78.64c-.08,3.95.03,4.73-.06,6.82-.12,2.69-.31,42.56-.49,55.31"/>
  <path class="cls-1" d="m81.66,140.77c-.75-.06-3.5,0-4.25,0-.14,0-.28,0-.42,0"/>
  <path class="cls-1" d="m76.99,140.56c0-2.7.25-3.99.02-6.69"/>
  <path class="cls-1" d="m76.86,133.89c-3.74,6.97-7.95,7.42-14.03,7.39"/>
  <path class="cls-1" d="m62.83,141.28c12.71-10.57,11.62-17.98,10.01-62.78"/>
</svg>