<?xml version="1.0" encoding="UTF-8"?>
<svg id="Ebene_2" data-name="Ebene 2" xmlns="http://www.w3.org/2000/svg" viewBox="0 0 170.08 170.08">
  <defs>
    <style>
      .cls-1 {
        fill: none;
        stroke: #010101;
        stroke-linecap: round;
        stroke-linejoin: round;
        stroke-width: .6px;
      }
    </style>
  </defs>
  <path class="cls-1" d="M55.25,148.58c2.78-.1,5.56-.13,8.35-.13,12.02,0,24.07.72,36.1.72,3.31,0,6.62-.05,9.93-.19"/>
  <path class="cls-1" d="M55,148.58c1.31-16.41,14.23-24.27,27.24-24.27s27.05,8.43,27.88,24.52"/>
  <g>
    <path class="cls-1" d="M42.32,65.73c4.31,1.09,8.61,2.34,12.96,3.32,5.53,1.24,9.34,1.43,13.77,2.42,3.15.71,3.55,1.18,8.32,2.25,2.91.65,5.86,1.17,8.77,1.82,6.94,1.56,6.98,2.56,32.76,8.56"/>
    <path class="cls-1" d="M44.47,54.43c-.84,3.76-1.19,7.57-2.03,11.33"/>
    <path class="cls-1" d="M44.68,54.09c.15-.06,12.33,2.62,18.46,4,6.78,1.52,5.88,1.63,15.61,3.81,11.32,2.55,22.78,4.53,34.09,7.08,1.91.43,3.81.87,5.7,1.34"/>
    <path class="cls-1" d="M118.3,70.26c.37.05.72.12,1.05.19.5.11.98.25,1.51.39-.1-.01-.21-.03-.31-.05.27.1.53.2.8.29-.32,4.3-1.09,8.65-2.03,12.86"/>
    <path class="cls-1" d="M98.98,66.04c-1.02-1.3-23.19-6.12-18.77-25.77,2.92-12.98,17.72-21.65,30.26-18.83,10.47,2.35,19.66,13.72,16.75,26.69-2.6,11.58-14.09,21.09-28.01,17.96-.08-.02-.15-.03-.23-.05Z"/>
    <path class="cls-1" d="M102.32,39.07c-.07.3-.14.6-.21.9-.11.5-.21,1-.25,1.51"/>
    <path class="cls-1" d="M107.25,39.97c.1.18.06.53-.03.91-.12.53-.33,1.12-.39,1.41"/>
  </g>
  <g>
    <path class="cls-1" d="M56.42,95.57c7.26,8.34,12.34,21.51,20.17,28.96"/>
    <path class="cls-1" d="M76.81,124.63c9.81-5.37,18.92-12.49,28.97-17.31"/>
    <path class="cls-1" d="M56.11,95.33c37.4-23.47,27.28-17.14,28.96-18.33"/>
    <path class="cls-1" d="M84.88,76.95c.7-.39,1.06-.79,1.89-.86h-.11c7.15,9.66,11.3,21.62,18.91,31.02"/>
    <path class="cls-1" d="M80.37,90.42l.03.07-.02-.05c-.1.2-.18.4-.25.6-.44,1.31-.15,2.54.96,2.92.42.14.96.16,1.62.01"/>
    <path class="cls-1" d="M89.51,102.01c-.18.34-.33.67-.43.99-.42,1.23-.22,2.2.86,2.57.39.13.9.19,1.54.15"/>
  </g>
</svg>