<?xml version="1.0" encoding="UTF-8"?>
<svg id="Ebene_2" data-name="Ebene 2" xmlns="http://www.w3.org/2000/svg" viewBox="0 0 170.08 170.08">
  <defs>
    <style>
      .cls-1 {
        fill: none;
        stroke: #010101;
        stroke-linecap: round;
        stroke-linejoin: round;
        stroke-width: .6px;
      }

      .cls-2 {
        fill: #e58c34;
        stroke-width: 0px;
      }
    </style>
  </defs>
  <g>
    <path class="cls-1" d="m39.17,128.59c-17.52-5.19-31.02-24.71-31.02-43.1s12.44-31.7,30.62-31.7c14.81,0,31.52,9.57,31.52,26.7,0,25.7-37.03,26.21-37.03,39.29,0,3.32,2.16,6.68,5.92,8.81Z"/>
    <path class="cls-1" d="m39.81,70.56c3.18,2.11,4.61,7.15,4.61,10.63,0,4.62-2.33,7.86-4.5,11.2"/>
  </g>
  <g>
    <path class="cls-1" d="m86.74,67.99c3.87,3.63,7.87,7.12,11.81,10.67"/>
    <path class="cls-1" d="m98.65,78.64c-3.15,1.53-5.89,3.7-8.89,5.47"/>
    <path class="cls-1" d="m89.61,84.25c3.26.73,6.57,1.82,9.76,2.82"/>
    <path class="cls-1" d="m99.22,86.88c-1.48,4.6-4.23,9.02-6.23,13.43"/>
    <path class="cls-1" d="m92.81,100.4c3.27-.84,6.51-1.65,9.75-2.62"/>
    <path class="cls-1" d="m102.89,97.65c.05,3.43.34,6.95.34,10.43,0,1.69-.07,3.37-.27,5.03"/>
    <path class="cls-1" d="m103.23,112.88c2.93-2.71,6.48-4.75,9.51-7.37"/>
    <path class="cls-1" d="m112.73,105.43c2.21,4.55,5.29,8.74,7.7,13.21"/>
    <path class="cls-1" d="m120.63,118.49c3.07-4.43,6-8.96,9.12-13.37"/>
    <path class="cls-1" d="m129.68,104.86c5.35,1.89,11.93,4,16.7,7.15"/>
    <path class="cls-1" d="m140.67,97.99c1.78,4.51,3.9,9.06,5.95,13.46"/>
    <path class="cls-1" d="m140.79,97.76c5.89-2.07,12.37-2.45,18.35-4.19"/>
    <path class="cls-1" d="m148.34,83.22c3.17,3.73,7.52,6.5,10.82,10.18"/>
    <path class="cls-1" d="m148.57,83.11c3.89-2.7,8.47-4.76,12.65-6.99"/>
    <path class="cls-1" d="m146.51,69.37c4.74,2.29,9.77,4.58,14.68,6.49"/>
    <path class="cls-1" d="m86.63,67.76c1.39.14,2.82.19,4.26.19,2,0,4.03-.08,6.01-.08.28,0,.56,0,.84,0"/>
    <path class="cls-1" d="m95.9,55.74c.11,3.81,1.32,7.79,1.89,11.57"/>
    <path class="cls-1" d="m95.79,55.4c4.35,2.92,8.67,6.02,12.8,9.23"/>
    <path class="cls-1" d="m108.61,64.56c.73-4.78,1.44-9.72,1.81-14.54"/>
    <path class="cls-1" d="m110.56,49.56c3.12,4.83,7.11,9.1,10.4,13.81"/>
    <path class="cls-1" d="m120.98,63.3c3.61-4.45,7.56-8.88,11.56-12.98"/>
    <path class="cls-1" d="m132.66,50.02c1.05,4.14,2.39,8.27,3.03,12.48"/>
    <path class="cls-1" d="m135.75,62.5c3.44-3.15,7.59-6,11.42-8.67"/>
    <path class="cls-1" d="m147.31,53.57c-.18,5.19-.69,10.35-.69,15.57"/>
    <path class="cls-1" d="m111.47,74.18c2.4,1.72,4.72,3.96,6.79,6.07"/>
    <path class="cls-1" d="m125.67,79.33c2.55-1.98,4.8-4.32,7.32-6.35"/>
    <path class="cls-1" d="m115.6,91.81c2.05-2.71,4.61-5.08,7.21-7.25"/>
    <path class="cls-1" d="m122.81,84.59c1.4,2.37,4.22,4.11,6.01,6.17"/>
  </g>
  <circle class="cls-2" cx="53.62" cy="74.43" r="2.78"/>
  <circle class="cls-2" cx="53.57" cy="88.44" r="2.78"/>
</svg>