<?xml version="1.0" encoding="UTF-8"?>
<svg id="Ebene_2" data-name="Ebene 2" xmlns="http://www.w3.org/2000/svg" viewBox="0 0 170.08 170.08">
  <defs>
    <style>
      .cls-1 {
        fill: none;
        stroke: #010101;
        stroke-linecap: round;
        stroke-linejoin: round;
        stroke-width: .6px;
      }
    </style>
  </defs>
  <path class="cls-1" d="M9.85,110.15c3.78,3.54,9.8,5.24,15,5.24,33.56,0,36.73-42.03,66.39-42.03,10.11,0,18.24,5.53,18.24,8.95,0,.9-.5,1.8-1.78,2.62"/>
  <path class="cls-1" d="M102.76,80.45c2.21.96,5.13,3.68,5.13,5.83,0,1.17-1.19,2.33-3.45,2.33-.08,0-.15,0-.23,0"/>
  <path class="cls-1" d="M99.28,82.86c1.66,1.2,4.46,3.87,4.46,5.97,0,.95-.58,1.79-2.09,2.31"/>
  <path class="cls-1" d="M97.01,86.4c2.26.63,4.43,3.82,4.43,5.21,0,2.03-3.51,2.06-7.14,2.06-.11,0-.23,0-.34,0-10.06,0-13.63,7.37-13.63,13.42,0,8.15,7.21,13.78,15.39,13.78,13.87,0,29.48-14.88,45.83-14.88,4.97,0,10.01,1.38,15.09,4.96"/>
  <path class="cls-1" d="M9.85,110.02c.86.12,1.74.18,2.63.18,5.18,0,10.64-2.05,14.32-5.63,5.63,2.31,8.56,4.72,14.11,4.72.93,0,1.94-.07,3.04-.21"/>
  <path class="cls-1" d="M80.65,108.81c1.65.47,2.95.52,4.52.52,3.65,0,7.04-1.28,9.97-3.89,2.64,2.19,6.52,3.65,10.3,3.65,3.19,0,6.31-1.03,8.57-3.53,3.35,2.38,6.14,4.02,10.07,4.02.56,0,1.13-.03,1.74-.1"/>
</svg>