<?xml version="1.0" encoding="UTF-8"?>
<svg id="Ebene_1" data-name="Ebene 1" xmlns="http://www.w3.org/2000/svg" xmlns:xlink="http://www.w3.org/1999/xlink" viewBox="0 0 184.25 141.73">
  <defs>
    <style>
      .cls-1 {
        clip-path: url(#clippath);
      }

      .cls-2 {
        fill: none;
      }

      .cls-2, .cls-3 {
        stroke-width: 0px;
      }

      .cls-3 {
        fill: #1a171b;
      }
    </style>
    <clipPath id="clippath">
      <rect class="cls-2" x="17.49" y="28.02" width="137.27" height="85.68"/>
    </clipPath>
  </defs>
  <g class="cls-1">
    <path class="cls-3" d="m154.76,74.69h-4.47v26.27h4.47v-26.27Zm-13.87,17.28c0,3.24-1.6,6.07-4.89,6.07-2.38,0-3.12-1.76-3.12-4.02v-12.4h-4.48v12.77c0,5.17,2.59,7.23,6.12,7.23,2.34,0,4.97-1.19,6.36-5.05l.12,4.39h4.35v-19.33h-4.47v10.34Zm-17.61-14.28c.86,0,1.97.2,3.16.86v-3.78c-1.44-.53-2.59-.74-4.02-.74-3.98,0-6.53,2.42-6.53,7.51v.08h-2.96v2.83h2.96v16.5h4.47v-16.5h5.34v-2.83h-5.34v-.29c0-2.22.37-3.65,2.92-3.65m-23.56,20.52c-3.57,0-4.97-3.08-4.97-6.65,0-4.31,1.89-7.22,5.21-7.22,2.71,0,5.09,2.09,5.09,6.85v.16c0,4.43-2.5,6.86-5.34,6.86m5.34-12.19c-1.15-3.53-3.45-5.05-6.53-5.05-5.01,0-8.37,4.19-8.37,10.59,0,5.7,2.83,10.06,8.13,10.06,3.16,0,5.58-1.72,6.77-5.26v4.6h4.47v-26.27h-4.47v11.33Zm-24.51-5.05c-2.34,0-4.97,1.19-6.36,5.05l-.12-4.39h-4.35v19.33h4.47v-10.34c0-3.24,1.6-6.08,4.89-6.08,2.38,0,3.12,1.76,3.12,4.02v12.4h4.47v-12.77c0-5.17-2.59-7.23-6.12-7.23m-15.76.66h-4.47v19.33h4.47v-19.33Zm.41-5.67c0,1.6-1.03,2.5-2.67,2.5s-2.63-.9-2.63-2.5,1.03-2.54,2.63-2.54,2.67.9,2.67,2.54m-15.64,5.01c-2.42,0-5.13,1.27-6.49,5.38-.57-3.82-2.91-5.38-5.99-5.38-2.34,0-4.97,1.19-6.36,5.05l-.12-4.39h-4.35v19.33h4.47v-10.34c0-3.24,1.6-6.08,4.88-6.08,2.38,0,3.12,1.76,3.12,4.02v12.4h4.47v-10.34c0-3.24,1.6-6.08,4.84-6.08,2.38,0,3.12,1.76,3.12,4.02v12.4h4.47v-12.77c0-5.17-2.59-7.23-6.07-7.23"/>
    <path class="cls-3" d="m44.21,62.11c.63-1.83,2.15-5.68,3.79-6.82h.13c1.26,0,1.52,1.14,1.52,2.15,0,1.64-1.52,6.32-3.54,6.32-.88,0-1.39-1.07-1.9-1.64m-.88,2.91c.7.57,1.83,1.26,2.78,1.26,3.66,0,6.06-5.43,6.06-8.59,0-2.53-1.2-4.93-4.04-4.93-4.55,0-7.96,13.9-7.96,17.56,0,3.92,1.64,7.45,6.06,7.45,7.96,0,18.76-16.49,22.11-22.99.06-.19.13-.32.13-.51,0-.57-.44-1.01-1.01-1.01-.32,0-.69.25-.89.51-1.14,1.58-2.08,3.47-3.16,5.18-3.03,4.67-10.99,16.8-17.18,16.8-3.1,0-4.04-2.46-4.04-5.18,0-1.77.69-3.85,1.14-5.56m-12.32,2.02c-.51,1.58-2.46,7.83-4.55,7.83-.51,0-1.01-1.39-1.01-1.77,0-1.96,4.17-4.99,5.56-6.06m-10.99,3.41c1.01-7.2,2.65-14.4,4.8-21.35.32-.95,2.91-8.53,2.91-8.72,0-.63-.63-1.26-1.26-1.26-.57,0-.89.44-1.14.88-2.78,5.43-7.83,27.85-7.83,34.11,0,1.01,0,3.79,1.52,3.79.51,0,.82-.32,1.01-.76.57-1.14.95-2.59,1.39-3.79,1.83-4.93,5.37-14.02,9.09-17.56.38-.38.95-.88,1.52-.88.76,0,.88,2.15.88,2.65,0,2.08-.63,4.42-1.14,6.44-2.65,1.71-8.34,5.62-8.34,9.1,0,1.58,1.26,3.79,3.03,3.79,3.98,0,6.63-9.03,7.45-12,1.9-1.33,13.26-8.46,13.26-10.49,0-.51-.38-.88-.89-.88-.25,0-.44.19-.63.38-3.35,3.41-7.14,5.81-11.12,8.34.32-1.64.63-3.41.63-5.05,0-1.96-.82-4.55-3.16-4.55-4.8,0-10.36,13.83-12,17.81"/>
  </g>
</svg>